<svg width="53" height="57" viewBox="0 0 53 57" fill="none" xmlns="http://www.w3.org/2000/svg">
<path fill-rule="evenodd" clip-rule="evenodd" d="M6.95471 39.9966V22.3216H46.2578V40.1382C46.2578 47.426 41.9436 51.9068 35.0407 51.9068H18.1503C11.3121 51.9068 6.95471 47.3331 6.95471 39.9966ZM17.7836 34.2852C16.7913 34.334 15.9716 33.4959 15.9284 32.4302C15.9284 31.3622 16.705 30.48 17.6973 30.4312C18.668 30.4312 19.4661 31.2461 19.4877 32.2886C19.5309 33.3589 18.7543 34.2411 17.7836 34.2852ZM26.6494 34.2852C25.6571 34.334 24.8374 33.4959 24.7943 32.4302C24.7943 31.3622 25.5709 30.48 26.5631 30.4312C27.5339 30.4312 28.332 31.2461 28.3536 32.2886C28.3967 33.3589 27.6201 34.2411 26.6494 34.2852ZM35.4506 42.829C34.4583 42.8058 33.6601 41.9236 33.6601 40.8556C33.6386 39.7876 34.4367 38.9077 35.429 38.8845H35.4506C36.4644 38.8845 37.2841 39.7667 37.2841 40.8556C37.2841 41.9468 36.4644 42.829 35.4506 42.829ZM24.7943 40.8556C24.8374 41.9236 25.6571 42.7617 26.6494 42.713C27.6201 42.6688 28.3967 41.7866 28.3536 40.7186C28.332 39.6739 27.5339 38.8589 26.5631 38.8589C25.5709 38.9077 24.7943 39.7876 24.7943 40.8556ZM15.9069 40.8556C15.95 41.9236 16.7697 42.7617 17.762 42.713C18.7327 42.6688 19.5093 41.7866 19.4661 40.7186C19.4446 39.6739 18.6464 38.8589 17.6757 38.8589C16.6834 38.9077 15.9069 39.7876 15.9069 40.8556ZM33.6817 32.407C33.6817 31.339 34.4583 30.48 35.4506 30.4568C36.4213 30.4568 37.1979 31.2902 37.241 32.3141C37.2626 33.3821 36.486 34.2643 35.5153 34.2852C34.523 34.3084 33.7033 33.4958 33.6817 32.4302V32.407Z" fill="#0A2640"/>
<path opacity="0.4" d="M6.96204 22.3213C6.99008 20.9585 7.09794 18.2537 7.30071 17.3831C8.33614 12.4866 11.8523 9.37559 16.8784 8.93214H36.3358C41.3188 9.3988 44.8781 12.5308 45.9136 17.3831C46.1142 18.2305 46.222 20.9562 46.2501 22.3213H6.96204Z" fill="#0A2640"/>
<path d="M18.5379 16.1296C19.4871 16.1296 20.1989 15.3658 20.1989 14.3419V7.26309C20.1989 6.23923 19.4871 5.47307 18.5379 5.47307C17.5888 5.47307 16.8769 6.23923 16.8769 7.26309V14.3419C16.8769 15.3658 17.5888 16.1296 18.5379 16.1296Z" fill="#0A2640"/>
<path d="M34.6742 16.1296C35.6018 16.1296 36.3352 15.3658 36.3352 14.3419V7.26309C36.3352 6.23923 35.6018 5.47307 34.6742 5.47307C33.7251 5.47307 33.0132 6.23923 33.0132 7.26309V14.3419C33.0132 15.3658 33.7251 16.1296 34.6742 16.1296Z" fill="#0A2640"/>
</svg>
