<svg width="53" height="56" viewBox="0 0 53 56" fill="none" xmlns="http://www.w3.org/2000/svg">
<path opacity="0.4" d="M28.738 7.31263L33.5995 17.7331C33.9577 18.488 34.6413 19.0123 35.4297 19.1288L46.3496 20.8252C46.9873 20.9207 47.5661 21.2796 47.957 21.8271C48.3436 22.3677 48.5096 23.0528 48.4156 23.7262C48.3392 24.2855 48.0924 24.8027 47.7146 25.1989L39.802 33.38C39.2233 33.9509 38.9612 34.7968 39.101 35.624L41.0491 47.1256C41.2566 48.5144 40.3939 49.8239 39.101 50.0872C38.5681 50.1781 38.0221 50.0826 37.5416 49.8216L27.8011 44.4086C27.0782 44.0195 26.2243 44.0195 25.5014 44.4086L15.7608 49.8216C14.564 50.4997 13.0811 50.0383 12.415 48.78C12.1682 48.279 12.0808 47.7081 12.1616 47.1512L14.1097 35.6473C14.2495 34.8224 13.9853 33.9719 13.4087 33.401L5.49614 25.2245C4.55485 24.2552 4.52645 22.659 5.4328 21.6547C5.45246 21.6337 5.4743 21.6104 5.49614 21.5871C5.87178 21.1794 6.36536 20.9207 6.89825 20.8531L17.8181 19.1545C18.6044 19.0356 19.2879 18.516 19.6483 17.7564L24.3351 7.31263C24.7523 6.41785 25.6171 5.86095 26.5562 5.88425H26.8489C27.6635 5.98911 28.3733 6.52737 28.738 7.31263Z" fill="#0A2640"/>
<path d="M26.5888 44.1185C26.1659 44.1324 25.7538 44.2537 25.3832 44.4704L15.6903 49.8711C14.5043 50.4748 13.085 50.0063 12.4201 48.7965C12.1737 48.3024 12.0843 47.736 12.1672 47.1812L14.1031 35.7017C14.234 34.8672 13.9723 34.0188 13.4033 33.4314L5.48723 25.257C4.54759 24.2757 4.53015 22.6651 5.45017 21.6605C5.46325 21.6465 5.47415 21.6348 5.48723 21.6232C5.86222 21.2269 6.34621 20.9659 6.86726 20.8843L17.7963 19.1687C18.5877 19.0615 19.2744 18.5347 19.6233 17.7702L24.3738 7.19503C24.8251 6.34193 25.6906 5.8338 26.6063 5.88741C26.5888 6.57968 26.5888 43.6476 26.5888 44.1185Z" fill="#0A2640"/>
</svg>
