<svg width="38" height="38" viewBox="0 0 38 38" fill="none" xmlns="http://www.w3.org/2000/svg">
<g clip-path="url(#clip0_62_578)">
<path d="M18.792 26.756C23.0888 26.756 26.572 23.2728 26.572 18.976C26.572 14.6793 23.0888 11.196 18.792 11.196C14.4952 11.196 11.012 14.6793 11.012 18.976C11.012 23.2728 14.4952 26.756 18.792 26.756Z" stroke="#0A2640" stroke-width="3.112" stroke-linecap="round" stroke-linejoin="round"/>
<path d="M18.792 1.86011V4.97211" stroke="#0A2640" stroke-width="3.112" stroke-linecap="round" stroke-linejoin="round"/>
<path d="M18.792 32.98V36.092" stroke="#0A2640" stroke-width="3.112" stroke-linecap="round" stroke-linejoin="round"/>
<path d="M6.68633 6.87036L8.89585 9.07988" stroke="#0A2640" stroke-width="3.112" stroke-linecap="round" stroke-linejoin="round"/>
<path d="M28.6882 28.8723L30.8977 31.0818" stroke="#0A2640" stroke-width="3.112" stroke-linecap="round" stroke-linejoin="round"/>
<path d="M1.67599 18.9761H4.78799" stroke="#0A2640" stroke-width="3.112" stroke-linecap="round" stroke-linejoin="round"/>
<path d="M32.796 18.9761H35.908" stroke="#0A2640" stroke-width="3.112" stroke-linecap="round" stroke-linejoin="round"/>
<path d="M6.68633 31.0818L8.89585 28.8723" stroke="#0A2640" stroke-width="3.112" stroke-linecap="round" stroke-linejoin="round"/>
<path d="M28.6882 9.07988L30.8977 6.87036" stroke="#0A2640" stroke-width="3.112" stroke-linecap="round" stroke-linejoin="round"/>
</g>
<defs>
<clipPath id="clip0_62_578">
<rect width="37.344" height="37.344" fill="white" transform="translate(0.119995 0.303955)"/>
</clipPath>
</defs>
</svg>
